# xmcd CD database file
#
# Track frame offsets:
#	182
#	12315
#	26645
#	40427
#	56350
#	72122
#	84580
#	100437
#	113552
#	127087
#	140985
#	160197
#	171772
#	185507
#	200795
#	211370
#	222445
#	238220
#	247455
#	256792
#
# Disc length: 3593 seconds
#
# Revision: 0
# Processed by: cddbd v1.4PL0 Copyright (c) Steve Scherf et al.
# Submitted via: CDex 1.50beta9
#
DISCID=370e0714
DTITLE=Various Artist  - Thoghts Of Country
DYEAR=1900
DGENRE=Country
TTITLE0=Stand Beside Me - Daniel O'Donnell
TTITLE1=Almost Perauaded - Dominic Kirwan
TTITLE2=jennnifer Johnson And Me - Mick Flavin
TTITLE3=Dear God - Mary Duff
TTITLE4=Four In The Morning - Charley Pride
TTITLE5=The Way Old Friends Do - Philomene Begley
TTITLE6=Back In Love By Monday - Ray Lynam
TTITLE7=Stell Got A Crush On You - John Hogan
TTITLE8=Daisy Chain - Philomena Begley and Mick Flavin
TTITLE9=Apologising Rose :Billie Jo Spers
TTITLE10=Queen Of The Silver Dollar - Pholomena Begley
TTITLE11=Travllin' Light - Mick Flavin
TTITLE12=Amy's Eyes - Charley Pride
TTITLE13=Forever And Ever Amen - Mary Duff
TTITLE14=Just Between You And Me - Philomena Begley And Mick Flavin
TTITLE15=I'm No Strangar to the rain - Sonny Curtis
TTITLE16=Tack Good Care Of Her - Daniel O'Donnell
TTITLE17=Don't Fight The Feeling - John Hogan
TTITLE18=Sweethearts In Heaven - Margo
TTITLE19=Sea Of Heartbreak - Dominic Kirwan
EXTD=
EXTT0=
EXTT1=
EXTT2=
EXTT3=
EXTT4=
EXTT5=
EXTT6=
EXTT7=
EXTT8=
EXTT9=
EXTT10=
EXTT11=
EXTT12=
EXTT13=
EXTT14=
EXTT15=
EXTT16=
EXTT17=
EXTT18=
EXTT19=
PLAYORDER=
